<?xml version="1.0" standalone="no"?>
<!DOCTYPE svg PUBLIC "-//W3C//DTD SVG 20010904//EN"
 "http://www.w3.org/TR/2001/REC-SVG-20010904/DTD/svg10.dtd">
<svg version="1.0" xmlns="http://www.w3.org/2000/svg"
 width="700.000000pt" height="700.000000pt" viewBox="0 0 700.000000 700.000000"
 preserveAspectRatio="xMidYMid meet">
<metadata>
Created by potrace 1.14, written by Peter Selinger 2001-2017
</metadata>
<g transform="translate(0.000000,700.000000) scale(0.100000,-0.100000)"
fill="#000000" stroke="none">
<path d="M3278 6995 c-1 -1 -42 -5 -89 -9 -47 -4 -95 -8 -105 -10 -10 -2 -46
-7 -79 -11 -32 -4 -68 -9 -80 -11 -11 -2 -45 -8 -75 -14 -78 -14 -83 -15 -205
-45 -124 -30 -382 -114 -463 -151 -29 -13 -55 -24 -59 -24 -3 0 -72 -32 -152
-71 -486 -238 -904 -577 -1239 -1008 -74 -95 -169 -228 -182 -256 -3 -5 -17
-28 -31 -50 -120 -185 -261 -489 -344 -740 -68 -204 -134 -503 -151 -680 -2
-22 -7 -76 -11 -120 -15 -157 -8 -594 12 -706 2 -13 7 -44 9 -69 14 -124 25
-182 73 -375 81 -331 210 -643 382 -929 36 -59 71 -116 76 -125 29 -49 136
-195 208 -284 213 -264 463 -496 749 -694 62 -43 122 -83 133 -89 11 -6 61
-35 110 -64 91 -53 367 -190 383 -190 4 0 27 -9 49 -20 107 -52 441 -149 629
-185 116 -21 134 -24 184 -31 25 -3 56 -7 70 -10 157 -25 682 -25 842 1 13 2
43 6 68 9 25 3 72 11 105 17 33 5 74 12 90 15 83 14 295 71 415 111 709 236
1303 674 1746 1288 89 122 94 130 192 300 179 308 321 678 388 1013 2 12 6 34
9 50 7 31 10 50 19 112 4 25 9 52 11 60 2 8 7 47 11 85 3 39 8 84 11 100 8 58
10 511 2 597 -13 138 -21 207 -39 308 -6 36 -13 79 -16 95 -3 17 -19 84 -35
150 -220 907 -803 1692 -1617 2178 -121 73 -410 217 -434 217 -8 0 -18 4 -23
9 -30 29 -417 149 -600 186 -105 22 -103 21 -158 29 -27 4 -58 9 -70 12 -12 2
-49 6 -83 10 -33 3 -74 8 -90 10 -33 5 -540 14 -546 9z"/>
</g>
</svg>
